<?xml version="1.0" encoding="UTF-8" standalone="no"?><!DOCTYPE svg PUBLIC "-//W3C//DTD SVG 1.1//EN" "http://www.w3.org/Graphics/SVG/1.1/DTD/svg11.dtd"><svg width="100%" height="100%" viewBox="0 0 92 18" version="1.1" xmlns="http://www.w3.org/2000/svg" xmlnsXlink="http://www.w3.org/1999/xlink" xmlSpace="preserve" xmlnsSerif="http://www.serif.com/" style="fill-rule:evenodd;clip-rule:evenodd;stroke-linejoin:round;stroke-miterlimit:2;"><g><g><g><path d="M29.22,8.825c-0,0 -3.005,6.014 -5.082,7.219c-1.763,1.023 -4.02,0.419 -5.035,-1.349c-1.016,-1.768 -0.409,-4.034 1.355,-5.057c2.076,-1.205 8.762,-0.813 8.762,-0.813Z" style="fill:#afafe8;"/><path d="M14.993,16.766c0,-0 3.211,-5.906 5.328,-7.037c1.799,-0.961 4.033,-0.278 4.987,1.525c0.954,1.802 0.268,4.046 -1.531,5.007c-2.117,1.131 -8.784,0.505 -8.784,0.505Z" style="fill:#afafe8;"/></g><g><path d="M0.76,8.493c0,0 6.687,-0.378 8.761,0.832c1.761,1.027 2.363,3.294 1.344,5.06c-1.019,1.765 -3.277,2.365 -5.038,1.338c-2.074,-1.209 -5.067,-7.23 -5.067,-7.23Z" style="fill:#afafe8;"/><path d="M14.699,16.934c-0,-0 -6.696,0.143 -8.727,-1.139c-1.725,-1.087 -2.247,-3.374 -1.167,-5.103c1.08,-1.729 3.356,-2.25 5.08,-1.162c2.032,1.281 4.814,7.404 4.814,7.404Z" style="fill:#afafe8;"/></g><g><path d="M3.492,5.157c0,-0 6.56,1.38 8.253,3.09c1.433,1.447 1.427,3.791 -0.012,5.231c-1.44,1.44 -3.773,1.434 -5.206,-0.013c-1.693,-1.71 -3.035,-8.308 -3.035,-8.308Z" style="fill:#ecf0f1;"/><path d="M14.778,16.938c-0,0 -6.509,-1.61 -8.142,-3.378c-1.381,-1.496 -1.294,-3.838 0.195,-5.227c1.489,-1.388 3.82,-1.301 5.201,0.195c1.633,1.768 2.746,8.41 2.746,8.41Z" style="fill:#ecf0f1;"/></g><g><path d="M7.087,2.627c-0,0 5.995,3.049 7.198,5.144c1.012,1.763 0.405,4.018 -1.355,5.034c-1.76,1.016 -4.01,0.41 -5.022,-1.352c-1.203,-2.095 -0.821,-8.826 -0.821,-8.826Z" style="fill:#afafe8;"/><path d="M14.991,16.938c-0,0 -5.887,-3.256 -7.016,-5.392c-0.95,-1.797 -0.265,-4.029 1.529,-4.983c1.794,-0.954 4.022,-0.27 4.972,1.527c1.13,2.136 0.515,8.848 0.515,8.848Z" style="fill:#afafe8;"/></g><g><path d="M26.696,5.568c-0,0 -1.358,6.596 -3.056,8.302c-1.436,1.443 -3.768,1.443 -5.205,-0c-1.436,-1.444 -1.436,-3.788 0,-5.231c1.698,-1.706 8.261,-3.071 8.261,-3.071Z" style="fill:#ecf0f1;"/><path d="M14.999,16.938c0,0 1.586,-6.543 3.341,-8.188c1.486,-1.393 3.817,-1.311 5.203,0.182c1.385,1.493 1.303,3.835 -0.183,5.228c-1.755,1.645 -8.361,2.778 -8.361,2.778Z" style="fill:#ecf0f1;"/></g><g><path d="M23.453,2.898c0,-0 0.382,6.73 -0.821,8.825c-1.012,1.763 -3.262,2.369 -5.022,1.353c-1.759,-1.016 -2.367,-3.272 -1.355,-5.034c1.203,-2.096 7.198,-5.144 7.198,-5.144Z" style="fill:#afafe8;"/><path d="M15.081,16.938c0,0 -0.148,-6.739 1.127,-8.791c1.072,-1.727 3.342,-2.254 5.065,-1.177c1.724,1.077 2.252,3.353 1.18,5.08c-1.275,2.052 -7.372,4.888 -7.372,4.888Z" style="fill:#afafe8;"/></g><g><path d="M15.298,0.587c-0,0 3.68,5.642 3.68,8.059c0,2.032 -1.649,3.681 -3.68,3.681c-2.032,-0 -3.681,-1.649 -3.681,-3.681c0,-2.417 3.681,-8.059 3.681,-8.059Z" style="fill:#ecf0f1;"/><path d="M15.028,16.938c-0,0 -3.483,-5.766 -3.399,-8.183c0.07,-2.03 1.776,-3.62 3.806,-3.549c2.03,0.071 3.621,1.777 3.55,3.807c-0.083,2.416 -3.957,7.925 -3.957,7.925Z" style="fill:#ecf0f1;"/></g></g><g><path d="M37.627,9.534c0,0.285 -0.053,0.55 -0.159,0.795c-0.106,0.245 -0.258,0.463 -0.455,0.653c-0.197,0.19 -0.433,0.349 -0.707,0.477c-0.274,0.128 -0.583,0.214 -0.927,0.258l-0,0.022c0.197,0.022 0.373,0.056 0.526,0.104c0.154,0.047 0.295,0.12 0.423,0.219c0.128,0.099 0.246,0.223 0.356,0.373c0.11,0.15 0.223,0.334 0.34,0.554l0.526,0.987c0.103,0.197 0.191,0.342 0.264,0.433c0.073,0.091 0.157,0.163 0.252,0.214l-0,0.033l-0.746,-0c-0.197,-0 -0.351,-0.031 -0.46,-0.093c-0.11,-0.063 -0.205,-0.174 -0.286,-0.335l-0.669,-1.272c-0.131,-0.249 -0.248,-0.45 -0.351,-0.603c-0.102,-0.154 -0.21,-0.273 -0.323,-0.357c-0.113,-0.084 -0.241,-0.14 -0.384,-0.17c-0.142,-0.029 -0.312,-0.044 -0.51,-0.044l-0.833,0l-0,2.874l-1.009,-0l-0,-7.348l2.401,-0c0.403,-0 0.77,0.055 1.103,0.164c0.332,0.11 0.619,0.264 0.861,0.461c0.241,0.197 0.429,0.431 0.564,0.702c0.136,0.27 0.203,0.57 0.203,0.899Zm-4.123,2.095l1.118,-0c0.278,-0 0.532,-0.051 0.762,-0.154c0.231,-0.102 0.428,-0.246 0.593,-0.433c0.164,-0.186 0.294,-0.407 0.389,-0.663c0.095,-0.256 0.143,-0.538 0.143,-0.845c-0,-0.3 -0.048,-0.577 -0.143,-0.833c-0.095,-0.256 -0.225,-0.476 -0.389,-0.658c-0.165,-0.183 -0.362,-0.326 -0.593,-0.428c-0.23,-0.102 -0.484,-0.154 -0.762,-0.154l-1.118,0l-0,4.168Z" style="fill:#afafe8;fill-rule:nonzero;stroke:#afafe8;stroke-opacity:0.62;stroke-width:0.35px;"/><path d="M38.647,12.024c0,-0.402 0.068,-0.772 0.203,-1.108c0.135,-0.336 0.325,-0.625 0.57,-0.866c0.245,-0.242 0.536,-0.43 0.872,-0.565c0.337,-0.135 0.706,-0.203 1.108,-0.203c0.365,-0 0.696,0.062 0.992,0.186c0.297,0.125 0.551,0.302 0.763,0.532c0.212,0.231 0.376,0.508 0.493,0.834c0.117,0.325 0.176,0.685 0.176,1.08l-4.113,0l-0,0.11c-0,0.373 0.046,0.711 0.137,1.014c0.091,0.304 0.219,0.565 0.384,0.784c0.164,0.22 0.362,0.388 0.592,0.505c0.23,0.117 0.488,0.175 0.773,0.175c0.249,0 0.488,-0.036 0.719,-0.109c0.23,-0.074 0.438,-0.18 0.625,-0.318c0.186,-0.139 0.351,-0.304 0.493,-0.494c0.143,-0.19 0.251,-0.398 0.324,-0.625l0.142,-0c-0.19,0.578 -0.502,1.024 -0.937,1.338c-0.435,0.314 -0.956,0.471 -1.563,0.471c-0.402,0 -0.771,-0.067 -1.108,-0.202c-0.336,-0.136 -0.627,-0.326 -0.872,-0.571c-0.245,-0.245 -0.435,-0.535 -0.57,-0.872c-0.135,-0.336 -0.203,-0.701 -0.203,-1.096Zm4.19,-0.263c-0.008,-0.717 -0.139,-1.284 -0.395,-1.7c-0.256,-0.417 -0.603,-0.626 -1.042,-0.626c-0.234,0 -0.45,0.057 -0.647,0.17c-0.198,0.114 -0.369,0.271 -0.516,0.472c-0.146,0.201 -0.263,0.444 -0.351,0.729c-0.087,0.286 -0.142,0.604 -0.164,0.955l3.115,-0Z" style="fill:#afafe8;fill-rule:nonzero;stroke:#afafe8;stroke-opacity:0.62;stroke-width:0.35px;"/><path d="M45.118,7.505c-0,-0.278 0.082,-0.497 0.246,-0.658c0.165,-0.161 0.386,-0.241 0.664,-0.241l0.044,-0l-0,8.05l-0.954,-0l-0,-7.151Z" style="fill:#afafe8;fill-rule:nonzero;stroke:#afafe8;stroke-opacity:0.62;stroke-width:0.35px;"/><path d="M47.267,12.024c0,-0.402 0.068,-0.772 0.203,-1.108c0.135,-0.336 0.326,-0.625 0.57,-0.866c0.245,-0.242 0.536,-0.43 0.872,-0.565c0.337,-0.135 0.706,-0.203 1.108,-0.203c0.395,-0 0.755,0.069 1.08,0.208c0.326,0.139 0.603,0.335 0.834,0.587c0.23,0.252 0.407,0.558 0.532,0.916c0.124,0.358 0.186,0.757 0.186,1.195l0,2.523l-0.044,-0c-0.278,-0 -0.499,-0.083 -0.663,-0.247c-0.165,-0.165 -0.247,-0.386 -0.247,-0.664l-0,-0.011c-0.19,0.315 -0.433,0.556 -0.729,0.724c-0.296,0.168 -0.642,0.252 -1.037,0.252c-0.373,0 -0.72,-0.071 -1.042,-0.213c-0.321,-0.143 -0.603,-0.339 -0.844,-0.587c-0.241,-0.249 -0.431,-0.539 -0.57,-0.872c-0.139,-0.333 -0.209,-0.689 -0.209,-1.069Zm1.064,-0c0,0.38 0.042,0.729 0.126,1.047c0.084,0.318 0.199,0.59 0.346,0.817c0.146,0.227 0.323,0.402 0.532,0.527c0.208,0.124 0.436,0.186 0.685,0.186c0.249,-0 0.475,-0.062 0.68,-0.186c0.205,-0.125 0.382,-0.3 0.532,-0.527c0.15,-0.227 0.265,-0.499 0.345,-0.817c0.081,-0.318 0.121,-0.667 0.121,-1.047c-0,-0.388 -0.04,-0.739 -0.121,-1.053c-0.08,-0.315 -0.195,-0.587 -0.345,-0.817c-0.15,-0.23 -0.327,-0.408 -0.532,-0.532c-0.205,-0.124 -0.431,-0.187 -0.68,-0.187c-0.249,0 -0.475,0.063 -0.68,0.187c-0.205,0.124 -0.382,0.302 -0.532,0.532c-0.15,0.23 -0.267,0.502 -0.351,0.817c-0.084,0.314 -0.126,0.665 -0.126,1.053Z" style="fill:#afafe8;fill-rule:nonzero;stroke:#afafe8;stroke-opacity:0.62;stroke-width:0.35px;"/><path d="M53.464,9.392l0.888,-0c0.146,-0 0.256,0.051 0.329,0.153l1.36,1.996l1.667,-2.149l0.23,-0l-1.809,2.292l2.018,2.972l-0.9,-0c-0.153,-0 -0.259,-0.051 -0.318,-0.154l-1.458,-2.149l-1.777,2.303l-0.23,-0l1.897,-2.446l-1.897,-2.818Z" style="fill:#afafe8;fill-rule:nonzero;stroke:#afafe8;stroke-opacity:0.62;stroke-width:0.35px;"/><path d="M64.025,9.435l-1.689,0c0.497,0.169 0.892,0.448 1.184,0.839c0.293,0.392 0.439,0.858 0.439,1.399c0,0.343 -0.064,0.661 -0.192,0.954c-0.128,0.292 -0.307,0.545 -0.537,0.757c-0.231,0.212 -0.505,0.378 -0.823,0.499c-0.318,0.12 -0.667,0.181 -1.047,0.181c-0.059,-0 -0.102,-0.004 -0.132,-0.011c-0.424,0.036 -0.767,0.195 -1.031,0.477c-0.263,0.281 -0.394,0.645 -0.394,1.091c-0,0.439 0.155,0.795 0.466,1.069c0.31,0.274 0.718,0.411 1.223,0.411c0.255,0 0.506,-0.036 0.751,-0.109c0.245,-0.073 0.475,-0.179 0.691,-0.318c0.215,-0.139 0.407,-0.304 0.575,-0.494c0.169,-0.19 0.308,-0.402 0.417,-0.636l0.132,0.055c-0.256,0.563 -0.634,1.003 -1.135,1.321c-0.501,0.319 -1.07,0.478 -1.706,0.478c-0.343,-0 -0.663,-0.046 -0.959,-0.138c-0.296,-0.091 -0.554,-0.215 -0.773,-0.372c-0.22,-0.158 -0.393,-0.342 -0.521,-0.554c-0.128,-0.212 -0.192,-0.443 -0.192,-0.691c-0,-0.439 0.157,-0.804 0.471,-1.097c0.315,-0.292 0.757,-0.486 1.327,-0.581c-0.27,-0.073 -0.515,-0.181 -0.735,-0.324c-0.219,-0.142 -0.407,-0.312 -0.564,-0.51c-0.158,-0.197 -0.28,-0.418 -0.368,-0.663c-0.087,-0.245 -0.131,-0.51 -0.131,-0.795c-0,-0.351 0.064,-0.673 0.192,-0.965c0.128,-0.293 0.307,-0.545 0.537,-0.757c0.23,-0.212 0.504,-0.377 0.823,-0.494c0.318,-0.117 0.663,-0.175 1.036,-0.175l2.665,-0l-0,0.153Zm-1.097,2.238c0,-0.329 -0.038,-0.631 -0.115,-0.905c-0.077,-0.274 -0.185,-0.51 -0.323,-0.707c-0.139,-0.198 -0.304,-0.351 -0.494,-0.461c-0.19,-0.11 -0.402,-0.165 -0.636,-0.165c-0.227,0 -0.437,0.055 -0.631,0.165c-0.193,0.11 -0.358,0.263 -0.493,0.461c-0.135,0.197 -0.241,0.433 -0.318,0.707c-0.077,0.274 -0.115,0.576 -0.115,0.905c-0,0.329 0.038,0.63 0.115,0.905c0.077,0.274 0.184,0.51 0.323,0.707c0.139,0.197 0.304,0.349 0.494,0.455c0.19,0.106 0.398,0.159 0.625,0.159c0.234,0 0.448,-0.055 0.641,-0.164c0.194,-0.11 0.359,-0.262 0.494,-0.456c0.135,-0.193 0.241,-0.427 0.318,-0.701c0.077,-0.275 0.115,-0.576 0.115,-0.905Z" style="fill:#afafe8;fill-rule:nonzero;stroke:#afafe8;stroke-opacity:0.62;stroke-width:0.35px;"/><path d="M66.131,9.392l-0,3.399c-0,0.549 0.128,0.989 0.383,1.322c0.256,0.333 0.604,0.499 1.042,0.499c0.432,-0 0.777,-0.166 1.037,-0.499c0.259,-0.333 0.389,-0.773 0.389,-1.322l-0,-3.399l0.954,-0l0,2.95c0,0.365 -0.057,0.696 -0.17,0.992c-0.113,0.296 -0.274,0.55 -0.482,0.762c-0.209,0.213 -0.459,0.377 -0.752,0.494c-0.292,0.117 -0.617,0.175 -0.976,0.175c-0.358,0 -0.683,-0.058 -0.976,-0.175c-0.292,-0.117 -0.543,-0.281 -0.751,-0.494c-0.208,-0.212 -0.369,-0.466 -0.483,-0.762c-0.113,-0.296 -0.17,-0.627 -0.17,-0.992l0,-2.95l0.955,-0Z" style="fill:#afafe8;fill-rule:nonzero;stroke:#afafe8;stroke-opacity:0.62;stroke-width:0.35px;"/><path d="M71.197,7.681c0,-0.19 0.059,-0.344 0.176,-0.461c0.117,-0.117 0.274,-0.175 0.471,-0.175c0.19,-0 0.344,0.058 0.461,0.175c0.117,0.117 0.175,0.271 0.175,0.461c0,0.19 -0.058,0.342 -0.175,0.455c-0.117,0.113 -0.271,0.17 -0.461,0.17c-0.197,-0 -0.354,-0.057 -0.471,-0.17c-0.117,-0.113 -0.176,-0.265 -0.176,-0.455Zm0.165,2.511c-0,-0.278 0.082,-0.499 0.247,-0.663c0.164,-0.165 0.385,-0.247 0.663,-0.247l0.044,-0l-0,5.374l-0.954,-0l-0,-4.464Z" style="fill:#afafe8;fill-rule:nonzero;stroke:#afafe8;stroke-opacity:0.62;stroke-width:0.35px;"/><path d="M73.511,12.024c0,-0.388 0.068,-0.75 0.203,-1.086c0.136,-0.336 0.32,-0.627 0.554,-0.872c0.234,-0.245 0.514,-0.437 0.839,-0.576c0.325,-0.139 0.675,-0.208 1.047,-0.208c0.381,-0 0.722,0.075 1.026,0.225c0.303,0.15 0.557,0.364 0.762,0.641l0,-2.643c0,-0.278 0.082,-0.497 0.247,-0.658c0.164,-0.161 0.385,-0.241 0.663,-0.241l0.044,-0l0,5.253c0,0.439 -0.064,0.837 -0.192,1.196c-0.128,0.358 -0.307,0.663 -0.537,0.915c-0.23,0.253 -0.508,0.448 -0.834,0.587c-0.325,0.139 -0.685,0.208 -1.08,0.208c-0.395,0 -0.76,-0.067 -1.097,-0.202c-0.336,-0.136 -0.627,-0.326 -0.871,-0.571c-0.245,-0.245 -0.435,-0.535 -0.571,-0.872c-0.135,-0.336 -0.203,-0.701 -0.203,-1.096Zm1.064,-0c0,0.38 0.042,0.729 0.126,1.047c0.084,0.318 0.2,0.592 0.346,0.823c0.146,0.23 0.321,0.407 0.526,0.531c0.205,0.125 0.432,0.187 0.68,0.187c0.249,-0 0.475,-0.062 0.68,-0.187c0.205,-0.124 0.382,-0.301 0.532,-0.531c0.15,-0.231 0.267,-0.505 0.351,-0.823c0.084,-0.318 0.126,-0.667 0.126,-1.047c0,-0.38 -0.042,-0.73 -0.126,-1.048c-0.084,-0.318 -0.199,-0.59 -0.346,-0.817c-0.146,-0.226 -0.323,-0.402 -0.531,-0.526c-0.209,-0.124 -0.437,-0.187 -0.686,-0.187c-0.248,0 -0.475,0.063 -0.68,0.187c-0.205,0.124 -0.38,0.3 -0.526,0.526c-0.146,0.227 -0.262,0.499 -0.346,0.817c-0.084,0.318 -0.126,0.668 -0.126,1.048Z" style="fill:#afafe8;fill-rule:nonzero;stroke:#afafe8;stroke-opacity:0.62;stroke-width:0.35px;"/><path d="M80.103,12.024c-0,-0.402 0.067,-0.772 0.202,-1.108c0.136,-0.336 0.326,-0.625 0.571,-0.866c0.245,-0.242 0.535,-0.43 0.872,-0.565c0.336,-0.135 0.705,-0.203 1.107,-0.203c0.366,-0 0.697,0.062 0.993,0.186c0.296,0.125 0.55,0.302 0.762,0.532c0.212,0.231 0.377,0.508 0.494,0.834c0.117,0.325 0.175,0.685 0.175,1.08l-4.113,0l0,0.11c0,0.373 0.046,0.711 0.137,1.014c0.092,0.304 0.22,0.565 0.384,0.784c0.165,0.22 0.362,0.388 0.593,0.505c0.23,0.117 0.488,0.175 0.773,0.175c0.248,0 0.488,-0.036 0.718,-0.109c0.23,-0.074 0.439,-0.18 0.625,-0.318c0.187,-0.139 0.351,-0.304 0.494,-0.494c0.142,-0.19 0.25,-0.398 0.323,-0.625l0.143,-0c-0.19,0.578 -0.503,1.024 -0.938,1.338c-0.435,0.314 -0.956,0.471 -1.563,0.471c-0.402,0 -0.771,-0.067 -1.107,-0.202c-0.337,-0.136 -0.627,-0.326 -0.872,-0.571c-0.245,-0.245 -0.435,-0.535 -0.571,-0.872c-0.135,-0.336 -0.202,-0.701 -0.202,-1.096Zm4.189,-0.263c-0.007,-0.717 -0.139,-1.284 -0.395,-1.7c-0.256,-0.417 -0.603,-0.626 -1.042,-0.626c-0.234,0 -0.449,0.057 -0.647,0.17c-0.197,0.114 -0.369,0.271 -0.515,0.472c-0.146,0.201 -0.263,0.444 -0.351,0.729c-0.088,0.286 -0.143,0.604 -0.165,0.955l3.115,-0Z" style="fill:#afafe8;fill-rule:nonzero;stroke:#afafe8;stroke-opacity:0.62;stroke-width:0.35px;"/><path d="M87.527,14.656l-0.954,-0l0,-2.961c0,-0.366 0.057,-0.697 0.17,-0.993c0.113,-0.296 0.274,-0.55 0.483,-0.762c0.208,-0.212 0.458,-0.375 0.751,-0.488c0.292,-0.113 0.618,-0.17 0.976,-0.17c0.358,-0 0.684,0.057 0.976,0.17c0.292,0.113 0.543,0.276 0.751,0.488c0.209,0.212 0.37,0.466 0.483,0.762c0.113,0.296 0.17,0.627 0.17,0.993l-0,2.961l-0.954,-0l-0,-3.4c-0,-0.548 -0.13,-0.989 -0.39,-1.322c-0.259,-0.332 -0.605,-0.499 -1.036,-0.499c-0.439,0 -0.786,0.167 -1.042,0.499c-0.256,0.333 -0.384,0.774 -0.384,1.322l0,3.4Z" style="fill:#afafe8;fill-rule:nonzero;stroke:#afafe8;stroke-opacity:0.62;stroke-width:0.35px;"/></g></g></svg>